<?xml version="1.0" encoding="UTF-8"?>
<svg id="Layer_2" data-name="Layer 2" xmlns="http://www.w3.org/2000/svg" viewBox="0 0 146.69 244.68">
  <defs>
    <style>
      .cls-1 {
        fill: #191919;
      }
    </style>
  </defs>
  <g id="Layer_1-2" data-name="Layer 1">
    <g>
      <polygon class="cls-1" points="13.36 17.63 13.36 0 0 0 0 217.97 13.18 217.97 13.36 217.97 26.53 217.97 26.53 204.61 13.36 204.61 13.36 30.99 26.54 30.99 26.54 17.63 13.36 17.63"/>
      <rect class="cls-1" x="26.54" y="30.99" width="13.36" height="13.36"/>
      <rect class="cls-1" x="39.89" y="44.34" width="13.36" height="13.36"/>
      <rect class="cls-1" x="53.25" y="57.7" width="13.36" height="13.36"/>
      <rect class="cls-1" x="66.61" y="71.05" width="13.36" height="13.36"/>
      <polygon class="cls-1" points="93.32 97.77 93.32 84.41 79.96 84.41 79.96 97.77 93.27 97.77 93.27 111.12 106.62 111.12 106.62 97.77 93.32 97.77"/>
      <rect class="cls-1" x="106.62" y="111.12" width="13.36" height="13.36"/>
      <rect class="cls-1" x="119.98" y="124.48" width="13.36" height="13.36"/>
      <rect class="cls-1" x="133.34" y="137.83" width="13.36" height="13.36"/>
      <rect class="cls-1" x="119.98" y="151.19" width="13.36" height="13.36"/>
      <polygon class="cls-1" points="93.22 151.19 93.22 164.54 93.27 164.54 93.27 177.9 106.6 177.9 106.6 191.26 119.96 191.26 119.96 177.9 106.62 177.9 106.62 164.54 119.96 164.54 119.96 151.19 106.6 151.19 106.6 164.54 106.58 164.54 106.58 151.19 93.22 151.19"/>
      <rect class="cls-1" x="106.62" y="191.26" width="13.36" height="13.36"/>
      <polygon class="cls-1" points="119.98 217.97 119.98 231.32 133.34 231.32 133.34 217.97 133.34 204.61 119.98 204.61 119.98 217.97"/>
      <polygon class="cls-1" points="106.6 231.32 93.29 231.32 93.29 244.68 106.6 244.68 106.65 244.68 119.96 244.68 119.96 231.32 106.65 231.32 106.6 231.32"/>
      <polygon class="cls-1" points="93.29 204.61 79.93 204.61 79.93 217.97 79.93 231.32 93.29 231.32 93.29 217.97 93.29 204.61"/>
      <polygon class="cls-1" points="79.93 191.26 79.93 177.94 66.58 177.94 66.58 191.26 66.58 191.3 66.58 204.61 79.93 204.61 79.93 191.3 79.93 191.26"/>
      <rect class="cls-1" x="53.22" y="164.54" width="13.36" height="13.36"/>
      <polygon class="cls-1" points="39.89 191.3 53.22 191.3 53.22 177.94 39.87 177.94 39.87 191.26 26.53 191.26 26.53 204.61 39.89 204.61 39.89 191.3"/>
    </g>
  </g>
</svg>