<?xml version="1.0" encoding="UTF-8"?>
<svg id="Layer_2" data-name="Layer 2" xmlns="http://www.w3.org/2000/svg" viewBox="0 0 1200 620">
  <defs>
    <style>
      .cls-1 {
        fill: #191919;
      }

      .cls-2 {
        fill: #fff3e7;
      }
    </style>
  </defs>
  <g id="Layer_1-2" data-name="Layer 1">
    <g>
      <rect class="cls-2" width="1200" height="620"/>
      <g>
        <g>
          <polygon class="cls-1" points="540.01 163.79 540.01 146.16 526.65 146.16 526.65 364.13 539.83 364.13 540.01 364.13 553.19 364.13 553.19 350.77 540.01 350.77 540.01 177.15 553.19 177.15 553.19 163.79 540.01 163.79"/>
          <rect class="cls-1" x="553.19" y="177.15" width="13.36" height="13.36"/>
          <rect class="cls-1" x="566.55" y="190.5" width="13.36" height="13.36"/>
          <rect class="cls-1" x="579.9" y="203.86" width="13.36" height="13.36"/>
          <rect class="cls-1" x="593.26" y="217.21" width="13.36" height="13.36"/>
          <polygon class="cls-1" points="619.97 243.93 619.97 230.57 606.62 230.57 606.62 243.93 619.92 243.93 619.92 257.28 633.28 257.28 633.28 243.93 619.97 243.93"/>
          <rect class="cls-1" x="633.28" y="257.28" width="13.36" height="13.36"/>
          <rect class="cls-1" x="646.63" y="270.64" width="13.36" height="13.36"/>
          <rect class="cls-1" x="659.99" y="283.99" width="13.36" height="13.36"/>
          <rect class="cls-1" x="646.63" y="297.35" width="13.36" height="13.36"/>
          <polygon class="cls-1" points="619.87 297.35 619.87 310.7 619.92 310.7 619.92 324.06 633.25 324.06 633.25 337.42 646.61 337.42 646.61 324.06 633.28 324.06 633.28 310.7 646.61 310.7 646.61 297.35 633.25 297.35 633.25 310.7 633.23 310.7 633.23 297.35 619.87 297.35"/>
          <rect class="cls-1" x="633.28" y="337.42" width="13.36" height="13.36"/>
          <polygon class="cls-1" points="646.63 364.13 646.63 377.48 659.99 377.48 659.99 364.13 659.99 350.77 646.63 350.77 646.63 364.13"/>
          <polygon class="cls-1" points="633.26 377.48 619.94 377.48 619.94 390.84 633.26 390.84 633.3 390.84 646.61 390.84 646.61 377.48 633.3 377.48 633.26 377.48"/>
          <polygon class="cls-1" points="619.94 350.77 606.59 350.77 606.59 364.13 606.59 377.48 619.94 377.48 619.94 364.13 619.94 350.77"/>
          <polygon class="cls-1" points="606.59 337.42 606.59 324.11 593.23 324.11 593.23 337.42 593.23 337.46 593.23 350.77 606.59 350.77 606.59 337.46 606.59 337.42"/>
          <rect class="cls-1" x="579.88" y="310.7" width="13.36" height="13.36"/>
          <polygon class="cls-1" points="566.54 337.46 579.88 337.46 579.88 324.11 566.52 324.11 566.52 337.42 553.19 337.42 553.19 350.77 566.54 350.77 566.54 337.46"/>
        </g>
        <g>
          <path class="cls-1" d="M471.31,448.78h-6.16v-18.48h6.16v-6.16h30.79v6.16h6.16v6.16h-12.32v-6.16h-18.48v18.48h18.48v-6.16h12.32v6.16h-6.16v6.16h-30.79v-6.16Z"/>
          <path class="cls-1" d="M525.29,448.78h30.79v6.16h-43.11v-30.79h12.32v24.63Z"/>
          <path class="cls-1" d="M559.42,424.14h12.32v30.79h-12.32v-30.79Z"/>
          <path class="cls-1" d="M582.78,448.78h-6.16v-18.48h6.16v-6.16h30.79v6.16h6.16v6.16h-12.32v-6.16h-18.48v18.48h18.48v-6.16h12.32v6.16h-6.16v6.16h-30.79v-6.16Z"/>
          <path class="cls-1" d="M624.44,454.94v-30.79h12.32v12.32h18.48v-12.32h12.32v12.32h-6.16v6.16h6.16v12.32h-12.32v-12.32h-18.48v12.32h-12.32Z"/>
          <path class="cls-1" d="M673,424.14h12.32v30.79h-12.32v-30.79Z"/>
          <path class="cls-1" d="M690.94,424.14h12.32v6.16h6.16v6.16h6.16v6.16h6.16v-18.48h12.32v30.79h-12.32v-6.16h-6.16v-6.16h-6.16v-6.16h-6.16v18.48h-12.32v-30.79Z"/>
        </g>
      </g>
      <rect class="cls-1" x="31.67" y="42.57" width="10" height="534.43"/>
      <rect class="cls-1" x="1153.69" y="43" width="10" height="534.06"/>
      <rect class="cls-1" x="592.6" y="-518.09" width="10" height="1112.18" transform="translate(559.6 635.6) rotate(-90)"/>
      <rect class="cls-1" x="593.18" y="-464.02" width="10" height="1114.38" transform="translate(505.01 691.35) rotate(-90)"/>
      <rect class="cls-1" x="592.61" y="26.05" width="10" height="1111.89" transform="translate(15.61 1179.61) rotate(-90)"/>
      <g>
        <rect class="cls-1" x="53.85" y="53.5" width="7.87" height="7.87"/>
        <rect class="cls-1" x="61.72" y="61.37" width="7.87" height="7.87"/>
        <rect class="cls-1" x="69.59" y="69.24" width="7.87" height="7.87"/>
        <rect class="cls-1" x="69.59" y="53.5" width="7.87" height="7.87"/>
        <rect class="cls-1" x="53.85" y="69.24" width="7.87" height="7.87"/>
      </g>
      <g>
        <rect class="cls-1" x="109.85" y="61.37" width="7.87" height="7.87"/>
        <rect class="cls-1" x="117.72" y="61.37" width="7.87" height="7.87"/>
        <rect class="cls-1" x="125.59" y="61.37" width="7.87" height="7.87"/>
      </g>
      <rect class="cls-1" x="89.72" y="42.57" width="7.87" height="45.6"/>
      <rect class="cls-1" x="145.79" y="42.57" width="7.87" height="45.6"/>
      <rect class="cls-1" x="201.87" y="42.57" width="7.87" height="45.6"/>
      <g>
        <g>
          <rect class="cls-1" x="165.93" y="61.58" width="7.87" height="7.87"/>
          <rect class="cls-1" x="173.79" y="61.58" width="7.87" height="7.87"/>
          <rect class="cls-1" x="181.66" y="61.58" width="7.87" height="7.87"/>
        </g>
        <rect class="cls-1" x="173.79" y="69.24" width="7.87" height="7.87"/>
        <rect class="cls-1" x="173.79" y="53.72" width="7.87" height="7.87"/>
      </g>
      <g>
        <path class="cls-1" d="M542.84,494.31v-.65c2.51,0,2.86-.49,2.86-2.13v-16.03c0-1.65-.35-2.13-2.86-2.13v-.65h8.45c3.94,0,6.56,1.73,6.56,5.34,0,3-1.97,4.75-4.59,5.07v.13c3.37.22,5.59,2.32,5.59,5.24,0,4.26-3.51,5.8-7.83,5.8h-8.18ZM548.7,482.59c.67.11,1.38.11,2.02.11,2.21,0,4.16-1.4,4.16-4.53s-1.97-4.35-4.1-4.35c-.51,0-1.08.03-1.54.13-.38.08-.54.32-.54.7v7.94ZM548.7,492.36c0,.65.7.84,1.97.84,2.54,0,5.16-.94,5.16-4.67s-3-4.72-5.07-4.72c-.7,0-1.38,0-2.05.11v8.45Z"/>
        <path class="cls-1" d="M558.93,498.76c0-.89.59-1.38,1.35-1.38.67,0,1.03.4,1.32.81.32.49.57.62.97.62.7,0,1.27-1.05,1.75-2.92.08-.49,0-1.54-.22-2.56l-3.35-10.66c-.54-1.67-1.03-2.02-2.21-2.02v-.65h6.32v.65c-1.78,0-1.78.35-1.3,2.02l2.27,7.94h.13l2.24-7.94c.46-1.67.46-2.02-1.3-2.02v-.65h4.45v.65c-1.08,0-1.57.35-2.05,2.02l-3.4,11.47c-1.11,3.7-2.21,6.4-4.75,6.48-1.27,0-2.24-.76-2.24-1.86Z"/>
        <path class="cls-1" d="M589.71,489.77h.05l5.51-17.06h6.69v.65c-2.54,0-2.89.49-2.89,2.13v16.03c0,1.65.35,2.13,2.89,2.13v.65h-8.8v-.65c2.51,0,2.86-.49,2.86-2.13v-17.25h-.08l-6.59,20.57h-1.21l-6.56-20.3h-.08v16.98c0,1.65.38,2.13,2.89,2.13v.65h-6.88v-.65c2.51,0,2.86-.49,2.86-2.13v-16.03c0-1.65-.35-2.13-2.86-2.13v-.65h6.72l5.48,17.06Z"/>
        <path class="cls-1" d="M614.74,491.26c-.08,2.05-.73,3.48-2.51,3.48-1.54,0-2.46-1.03-2.46-3.54v-.49c-.62,2.54-2.05,4.02-4,4.02s-3-1.43-3-3.19c0-3.4,3.91-4.91,6.99-6.29v-1.57c0-2.32-.76-3.13-2.08-3.13-1.05,0-1.81.54-1.81,1.43,0,.62.38.97.38,1.59,0,.73-.46,1.24-1.32,1.24-.97,0-1.48-.67-1.48-1.67,0-2,1.94-3.67,4.67-3.67s4.24,1.48,4.24,4.4v7.96c0,1.32.27,1.65.7,1.65.57,0,1-.54,1.05-2.24h.62ZM609.77,489.34v-3.19c-2.19,1.13-4.4,2.43-4.4,4.67,0,1.13.51,1.86,1.46,1.86,1.08,0,2.24-1,2.94-3.35Z"/>
        <path class="cls-1" d="M624.84,480.95c0,1.05-.62,1.73-1.32,1.73-.49,0-.7-.19-1.05-.57-.35-.35-.49-.46-.81-.46-.62,0-1.35.89-1.92,2.54v7.18c0,1.84.4,2.27,2.86,2.27v.67h-7.29v-.65c1.57,0,1.84-.4,1.84-2.13v-8.31c0-1.81,0-2.19-1.62-1.51l-.27-.62,2.16-.86,1.84-.76.49.41v2.59h.08c.76-1.43,2.08-2.94,3.56-2.94.94,0,1.46.54,1.46,1.43Z"/>
        <path class="cls-1" d="M644.63,480.65c-1.13,0-1.62.35-2.08,2.02l-3.43,11.88h-1.62l-2.35-9.18-2.48,9.18h-1.7l-3.54-11.88c-.51-1.67-1-2.02-2.13-2.02v-.65h5.67v.65c-1.3,0-1.21.35-.73,2.02l2.29,7.99h.11l1.97-7.37-.16-.59c-.43-1.7-.84-2.05-1.81-2.05v-.65h5.64v.65c-1.46,0-1.46.38-1.08,2.08l1.84,7.94h.11l2.27-7.99c.49-1.67.51-2.02-1.21-2.02v-.65h4.43v.65Z"/>
        <path class="cls-1" d="M656.26,491.26c-.08,2.05-.73,3.48-2.51,3.48-1.54,0-2.46-1.03-2.46-3.54v-.49c-.62,2.54-2.05,4.02-4,4.02s-3-1.43-3-3.19c0-3.4,3.91-4.91,6.99-6.29v-1.57c0-2.32-.76-3.13-2.08-3.13-1.05,0-1.81.54-1.81,1.43,0,.62.38.97.38,1.59,0,.73-.46,1.24-1.32,1.24-.97,0-1.48-.67-1.48-1.67,0-2,1.94-3.67,4.67-3.67s4.24,1.48,4.24,4.4v7.96c0,1.32.27,1.65.7,1.65.57,0,1-.54,1.05-2.24h.62ZM651.3,489.34v-3.19c-2.19,1.13-4.4,2.43-4.4,4.67,0,1.13.51,1.86,1.46,1.86,1.08,0,2.24-1,2.94-3.35Z"/>
        <path class="cls-1" d="M656.83,493.66c1.57,0,1.84-.4,1.84-2.13v-8.31c0-1.81,0-2.19-1.62-1.51l-.27-.62,2.16-.86,1.84-.76.51.41v2.48h.08c1.21-1.67,2.43-2.83,4.27-2.83s2.97,1.38,2.97,3.91v8.1c0,1.73.24,2.13,1.78,2.13v.65h-6.05v-.65c1.43,0,1.65-.4,1.65-2.13v-7.94c0-1.48-.57-2.19-1.59-2.19-1.11,0-2.08.76-3.1,2.08v8.04c0,1.73.22,2.13,1.65,2.13v.65h-6.1v-.65Z"/>
      </g>
    </g>
  </g>
</svg>