<?xml version="1.0" encoding="UTF-8"?>
<svg id="Layer_2" data-name="Layer 2" xmlns="http://www.w3.org/2000/svg" viewBox="0 0 268.9 308.78">
  <defs>
    <style>
      .cls-1 {
        fill: #191919;
      }
    </style>
  </defs>
  <g id="Layer_1-2" data-name="Layer 1">
    <g>
      <g>
        <polygon class="cls-1" points="74.85 17.63 74.85 0 61.5 0 61.5 217.97 74.68 217.97 74.85 217.97 88.03 217.97 88.03 204.61 74.85 204.61 74.85 30.99 88.04 30.99 88.04 17.63 74.85 17.63"/>
        <rect class="cls-1" x="88.04" y="30.99" width="13.36" height="13.36"/>
        <rect class="cls-1" x="101.39" y="44.34" width="13.36" height="13.36"/>
        <rect class="cls-1" x="114.75" y="57.7" width="13.36" height="13.36"/>
        <rect class="cls-1" x="128.1" y="71.05" width="13.36" height="13.36"/>
        <polygon class="cls-1" points="154.82 97.77 154.82 84.41 141.46 84.41 141.46 97.77 154.77 97.77 154.77 111.12 168.12 111.12 168.12 97.77 154.82 97.77"/>
        <rect class="cls-1" x="168.12" y="111.12" width="13.36" height="13.36"/>
        <rect class="cls-1" x="181.48" y="124.48" width="13.36" height="13.36"/>
        <rect class="cls-1" x="194.84" y="137.83" width="13.36" height="13.36"/>
        <rect class="cls-1" x="181.48" y="151.19" width="13.36" height="13.36"/>
        <polygon class="cls-1" points="154.72 151.19 154.72 164.54 154.77 164.54 154.77 177.9 168.1 177.9 168.1 191.26 181.46 191.26 181.46 177.9 168.12 177.9 168.12 164.54 181.46 164.54 181.46 151.19 168.1 151.19 168.1 164.54 168.08 164.54 168.08 151.19 154.72 151.19"/>
        <rect class="cls-1" x="168.12" y="191.26" width="13.36" height="13.36"/>
        <polygon class="cls-1" points="181.48 217.97 181.48 231.32 194.84 231.32 194.84 217.97 194.84 204.61 181.48 204.61 181.48 217.97"/>
        <polygon class="cls-1" points="168.1 231.32 154.79 231.32 154.79 244.68 168.1 244.68 168.15 244.68 181.46 244.68 181.46 231.32 168.15 231.32 168.1 231.32"/>
        <polygon class="cls-1" points="154.79 204.61 141.43 204.61 141.43 217.97 141.43 231.32 154.79 231.32 154.79 217.97 154.79 204.61"/>
        <polygon class="cls-1" points="141.43 191.26 141.43 177.94 128.08 177.94 128.08 191.26 128.08 191.3 128.08 204.61 141.43 204.61 141.43 191.3 141.43 191.26"/>
        <rect class="cls-1" x="114.72" y="164.54" width="13.36" height="13.36"/>
        <polygon class="cls-1" points="101.39 191.3 114.72 191.3 114.72 177.94 101.37 177.94 101.37 191.26 88.03 191.26 88.03 204.61 101.39 204.61 101.39 191.3"/>
      </g>
      <g>
        <path class="cls-1" d="M6.16,302.62H0v-18.48h6.16v-6.16h30.79v6.16h6.16v6.16h-12.32v-6.16H12.32v18.48h18.48v-6.16h12.32v6.16h-6.16v6.16H6.16v-6.16Z"/>
        <path class="cls-1" d="M60.13,302.62h30.79v6.16h-43.11v-30.79h12.32v24.63Z"/>
        <path class="cls-1" d="M94.27,277.98h12.32v30.79h-12.32v-30.79Z"/>
        <path class="cls-1" d="M117.62,302.62h-6.16v-18.48h6.16v-6.16h30.79v6.16h6.16v6.16h-12.32v-6.16h-18.48v18.48h18.48v-6.16h12.32v6.16h-6.16v6.16h-30.79v-6.16Z"/>
        <path class="cls-1" d="M159.28,308.78v-30.79h12.32v12.32h18.48v-12.32h12.32v12.32h-6.16v6.16h6.16v12.32h-12.32v-12.32h-18.48v12.32h-12.32Z"/>
        <path class="cls-1" d="M207.84,277.98h12.32v30.79h-12.32v-30.79Z"/>
        <path class="cls-1" d="M225.79,277.98h12.32v6.16h6.16v6.16h6.16v6.16h6.16v-18.48h12.32v30.79h-12.32v-6.16h-6.16v-6.16h-6.16v-6.16h-6.16v18.48h-12.32v-30.79Z"/>
      </g>
    </g>
  </g>
</svg>