<?xml version="1.0" encoding="UTF-8"?>
<svg id="Layer_2" data-name="Layer 2" xmlns="http://www.w3.org/2000/svg" viewBox="0 0 268.9 354.46">
  <defs>
    <style>
      .cls-1 {
        fill: #191919;
      }
    </style>
  </defs>
  <g id="Layer_1-2" data-name="Layer 1">
    <g>
      <g>
        <g>
          <polygon class="cls-1" points="74.85 17.63 74.85 0 61.5 0 61.5 217.97 74.68 217.97 74.85 217.97 88.03 217.97 88.03 204.61 74.85 204.61 74.85 30.99 88.04 30.99 88.04 17.63 74.85 17.63"/>
          <rect class="cls-1" x="88.04" y="30.99" width="13.36" height="13.36"/>
          <rect class="cls-1" x="101.39" y="44.34" width="13.36" height="13.36"/>
          <rect class="cls-1" x="114.75" y="57.7" width="13.36" height="13.36"/>
          <rect class="cls-1" x="128.1" y="71.05" width="13.36" height="13.36"/>
          <polygon class="cls-1" points="154.82 97.77 154.82 84.41 141.46 84.41 141.46 97.77 154.77 97.77 154.77 111.12 168.12 111.12 168.12 97.77 154.82 97.77"/>
          <rect class="cls-1" x="168.12" y="111.12" width="13.36" height="13.36"/>
          <rect class="cls-1" x="181.48" y="124.48" width="13.36" height="13.36"/>
          <rect class="cls-1" x="194.84" y="137.83" width="13.36" height="13.36"/>
          <rect class="cls-1" x="181.48" y="151.19" width="13.36" height="13.36"/>
          <polygon class="cls-1" points="154.72 151.19 154.72 164.54 154.77 164.54 154.77 177.9 168.1 177.9 168.1 191.26 181.46 191.26 181.46 177.9 168.12 177.9 168.12 164.54 181.46 164.54 181.46 151.19 168.1 151.19 168.1 164.54 168.08 164.54 168.08 151.19 154.72 151.19"/>
          <rect class="cls-1" x="168.12" y="191.26" width="13.36" height="13.36"/>
          <polygon class="cls-1" points="181.48 217.97 181.48 231.32 194.84 231.32 194.84 217.97 194.84 204.61 181.48 204.61 181.48 217.97"/>
          <polygon class="cls-1" points="168.1 231.32 154.79 231.32 154.79 244.68 168.1 244.68 168.15 244.68 181.46 244.68 181.46 231.32 168.15 231.32 168.1 231.32"/>
          <polygon class="cls-1" points="154.79 204.61 141.43 204.61 141.43 217.97 141.43 231.32 154.79 231.32 154.79 217.97 154.79 204.61"/>
          <polygon class="cls-1" points="141.43 191.26 141.43 177.94 128.08 177.94 128.08 191.26 128.08 191.3 128.08 204.61 141.43 204.61 141.43 191.3 141.43 191.26"/>
          <rect class="cls-1" x="114.72" y="164.54" width="13.36" height="13.36"/>
          <polygon class="cls-1" points="101.39 191.3 114.72 191.3 114.72 177.94 101.37 177.94 101.37 191.26 88.03 191.26 88.03 204.61 101.39 204.61 101.39 191.3"/>
        </g>
        <g>
          <path class="cls-1" d="M6.16,302.62H0v-18.48h6.16v-6.16h30.79v6.16h6.16v6.16h-12.32v-6.16H12.32v18.48h18.48v-6.16h12.32v6.16h-6.16v6.16H6.16v-6.16Z"/>
          <path class="cls-1" d="M60.13,302.62h30.79v6.16h-43.11v-30.79h12.32v24.63Z"/>
          <path class="cls-1" d="M94.27,277.98h12.32v30.79h-12.32v-30.79Z"/>
          <path class="cls-1" d="M117.62,302.62h-6.16v-18.48h6.16v-6.16h30.79v6.16h6.16v6.16h-12.32v-6.16h-18.48v18.48h18.48v-6.16h12.32v6.16h-6.16v6.16h-30.79v-6.16Z"/>
          <path class="cls-1" d="M159.28,308.78v-30.79h12.32v12.32h18.48v-12.32h12.32v12.32h-6.16v6.16h6.16v12.32h-12.32v-12.32h-18.48v12.32h-12.32Z"/>
          <path class="cls-1" d="M207.84,277.98h12.32v30.79h-12.32v-30.79Z"/>
          <path class="cls-1" d="M225.79,277.98h12.32v6.16h6.16v6.16h6.16v6.16h6.16v-18.48h12.32v30.79h-12.32v-6.16h-6.16v-6.16h-6.16v-6.16h-6.16v18.48h-12.32v-30.79Z"/>
        </g>
      </g>
      <g>
        <path class="cls-1" d="M77.69,348.15v-.65c2.51,0,2.86-.49,2.86-2.13v-16.03c0-1.65-.35-2.13-2.86-2.13v-.65h8.45c3.94,0,6.56,1.73,6.56,5.34,0,3-1.97,4.75-4.59,5.07v.13c3.37.22,5.59,2.32,5.59,5.24,0,4.26-3.51,5.8-7.83,5.8h-8.18ZM83.54,336.43c.67.11,1.38.11,2.02.11,2.21,0,4.16-1.4,4.16-4.53s-1.97-4.35-4.1-4.35c-.51,0-1.08.03-1.54.13-.38.08-.54.32-.54.7v7.94ZM83.54,346.2c0,.65.7.84,1.97.84,2.54,0,5.16-.94,5.16-4.67s-3-4.72-5.07-4.72c-.7,0-1.38,0-2.05.11v8.45Z"/>
        <path class="cls-1" d="M93.78,352.6c0-.89.59-1.38,1.35-1.38.67,0,1.03.4,1.32.81.32.49.57.62.97.62.7,0,1.27-1.05,1.75-2.92.08-.49,0-1.54-.22-2.56l-3.35-10.66c-.54-1.67-1.03-2.02-2.21-2.02v-.65h6.32v.65c-1.78,0-1.78.35-1.3,2.02l2.27,7.94h.13l2.24-7.94c.46-1.67.46-2.02-1.3-2.02v-.65h4.45v.65c-1.08,0-1.57.35-2.05,2.02l-3.4,11.47c-1.11,3.7-2.21,6.4-4.75,6.48-1.27,0-2.24-.76-2.24-1.86Z"/>
        <path class="cls-1" d="M124.56,343.61h.05l5.51-17.06h6.69v.65c-2.54,0-2.89.49-2.89,2.13v16.03c0,1.65.35,2.13,2.89,2.13v.65h-8.8v-.65c2.51,0,2.86-.49,2.86-2.13v-17.25h-.08l-6.59,20.57h-1.21l-6.56-20.3h-.08v16.98c0,1.65.38,2.13,2.89,2.13v.65h-6.88v-.65c2.51,0,2.86-.49,2.86-2.13v-16.03c0-1.65-.35-2.13-2.86-2.13v-.65h6.72l5.48,17.06Z"/>
        <path class="cls-1" d="M149.58,345.1c-.08,2.05-.73,3.48-2.51,3.48-1.54,0-2.46-1.03-2.46-3.54v-.49c-.62,2.54-2.05,4.02-4,4.02s-3-1.43-3-3.19c0-3.4,3.91-4.91,6.99-6.29v-1.57c0-2.32-.76-3.13-2.08-3.13-1.05,0-1.81.54-1.81,1.43,0,.62.38.97.38,1.59,0,.73-.46,1.24-1.32,1.24-.97,0-1.48-.67-1.48-1.67,0-2,1.94-3.67,4.67-3.67s4.24,1.48,4.24,4.4v7.96c0,1.32.27,1.65.7,1.65.57,0,1-.54,1.05-2.24h.62ZM144.62,343.18v-3.19c-2.19,1.13-4.4,2.43-4.4,4.67,0,1.13.51,1.86,1.46,1.86,1.08,0,2.24-1,2.94-3.35Z"/>
        <path class="cls-1" d="M159.68,334.78c0,1.05-.62,1.73-1.32,1.73-.49,0-.7-.19-1.05-.57-.35-.35-.49-.46-.81-.46-.62,0-1.35.89-1.92,2.54v7.18c0,1.84.4,2.27,2.86,2.27v.67h-7.29v-.65c1.57,0,1.84-.4,1.84-2.13v-8.31c0-1.81,0-2.19-1.62-1.51l-.27-.62,2.16-.86,1.84-.76.49.41v2.59h.08c.76-1.43,2.08-2.94,3.56-2.94.94,0,1.46.54,1.46,1.43Z"/>
        <path class="cls-1" d="M179.47,334.49c-1.13,0-1.62.35-2.08,2.02l-3.43,11.88h-1.62l-2.35-9.18-2.48,9.18h-1.7l-3.54-11.88c-.51-1.67-1-2.02-2.13-2.02v-.65h5.67v.65c-1.3,0-1.21.35-.73,2.02l2.29,7.99h.11l1.97-7.37-.16-.59c-.43-1.7-.84-2.05-1.81-2.05v-.65h5.64v.65c-1.46,0-1.46.38-1.08,2.08l1.84,7.94h.11l2.27-7.99c.49-1.67.51-2.02-1.21-2.02v-.65h4.43v.65Z"/>
        <path class="cls-1" d="M191.11,345.1c-.08,2.05-.73,3.48-2.51,3.48-1.54,0-2.46-1.03-2.46-3.54v-.49c-.62,2.54-2.05,4.02-4,4.02s-3-1.43-3-3.19c0-3.4,3.91-4.91,6.99-6.29v-1.57c0-2.32-.76-3.13-2.08-3.13-1.05,0-1.81.54-1.81,1.43,0,.62.38.97.38,1.59,0,.73-.46,1.24-1.32,1.24-.97,0-1.48-.67-1.48-1.67,0-2,1.94-3.67,4.67-3.67s4.24,1.48,4.24,4.4v7.96c0,1.32.27,1.65.7,1.65.57,0,1-.54,1.05-2.24h.62ZM186.14,343.18v-3.19c-2.19,1.13-4.4,2.43-4.4,4.67,0,1.13.51,1.86,1.46,1.86,1.08,0,2.24-1,2.94-3.35Z"/>
        <path class="cls-1" d="M191.68,347.5c1.57,0,1.84-.4,1.84-2.13v-8.31c0-1.81,0-2.19-1.62-1.51l-.27-.62,2.16-.86,1.84-.76.51.41v2.48h.08c1.21-1.67,2.43-2.83,4.27-2.83s2.97,1.38,2.97,3.91v8.1c0,1.73.24,2.13,1.78,2.13v.65h-6.05v-.65c1.43,0,1.65-.4,1.65-2.13v-7.94c0-1.48-.57-2.19-1.59-2.19-1.11,0-2.08.76-3.1,2.08v8.04c0,1.73.22,2.13,1.65,2.13v.65h-6.1v-.65Z"/>
      </g>
    </g>
  </g>
</svg>